<?xml version="1.0"?>
<svg version="1.1" xmlns="http://www.w3.org/2000/svg" width="141" height="36" style="border: dashed 2px #aaa"><path fill="#" d=""/><path fill="#058ef0" d="M27.935,32.237q-0.989,0-0.989-0.69q0-1.196,3.0475-5.4855t3.6915-5.2785q1.403-2.162,1.403-2.944q0-0.391-0.299-0.483q-0.552-0.23-1.288-0.23q-2.53,0-6.463,2.691q-2.576,1.794-4.2665,4.1975t-1.6905,3.9675q0,1.127,0.92,1.288q0.368,0.069,0.736,0.069q1.173,0,2.415-0.759q0.621-0.368,1.564-1.219l0.414-0.138q-0.437,0.828-1.8285,1.679t-2.8635,0.851q-0.345,0-0.805-0.092t-0.8855-0.6555t-0.4255-1.4835q0-3.611,6.808-8.487q1.38-0.989,3.266-1.7135t3.427-0.7245q0.782,0,1.5065,0.299t0.7245,1.0005t-0.8165,2.001t-2.553,3.657t-2.944,4.4045t-1.2075,2.852q0,0.391,0.322,0.391q0.621,0,2.323-1.288q4.048-3.082,9.522-10.005q0.874-1.104,1.403-1.104q0.207,0,0.207,0.207q0,0.092-0.069,0.23q0.023,0.069,0.023,0.138q0,0.483-0.552,1.311l-2.714,3.841q-1.656,2.392-2.921,4.531t-1.173,2.507l0.414-0.138q1.15-0.644,2.001-1.495q0.299-0.23,0.368-0.23l0.046,0.046q0,0.207-0.621,0.874q-1.61,1.403-2.3,1.403t-0.69-0.437t1.2305-2.714t3.9445-6.279q-0.46,0.552-1.449,1.633q-5.658,5.796-6.785,6.693q-1.679,1.311-3.128,1.311z M44.13091,31.915q-1.725,0-1.725-1.909q0-0.966,0.506-2.116t1.104-1.932q-0.115,0.023-0.299,0.023q-0.552,0-0.92-0.782l-1.702,2.208q-1.426,1.771-1.656,1.771q-0.115,0-0.115-0.092q0-0.23,0.391-0.667q2.001-2.323,2.829-3.933q0.529-2.001,1.334-2.001q0.529,0,0.529,0.46t-0.575,1.173l-0.552,0.736q0,0.483,0.713,0.483q0.414,0,0.92-0.299l0.598-0.368q0.046-0.023,0.23-0.023t0.391,0.23t0.138,0.414l-1.587,2.001q-1.472,1.886-1.472,2.9785t1.012,1.0925q1.058,0,2.599-1.127q0.92-0.667,1.679-1.495q0.713-0.828,0.782-0.828q0.161,0,0.161,0.1725t-0.207,0.4025l-0.736,0.828q-0.621,0.644-1.38,1.242q-1.817,1.357-2.99,1.357z M54.76082,26.073q0-1.564,0.966-1.564q0.092,0,0.207,0.023q0.391,0.069,0.391,0.598t-0.184,1.334q-0.184,0.598-0.253,0.897q0.069,0.391,0.3795,1.0005t0.851,0.6095t1.2075-0.736q0.138-0.161,0.2645-0.161t0.138,0.1495t-0.1725,0.4025q-0.713,0.851-1.495,0.851q-1.127,0-1.817-1.656q-0.713,1.633-2.024,2.8175t-2.599,1.1845q-1.219,0-1.219-1.84q0-1.449,2.7025-5.336t4.1285-3.887q0.299,0,0.5405,0.184t0.2415,0.437q0-0.023-0.3335,0.345t-1.817,1.978t-2.9095,3.542t-1.426,2.99q0,0.276,0.1495,0.598t0.4945,0.322q1.012,0,2.369-1.564q1.127-1.38,1.38-2.323q-0.161-0.483-0.161-1.196z M66.56373,24.923l0.322-0.069q0.253,0,0.483,0.207t0.23,0.322t-1.426,2.2195t-1.426,2.9325q0,0.069,0.023,0.138q0.115,0.529,0.506,0.529q1.196,0,4.37-3.956q0.069-0.092,0.161-0.092t0.092,0.1725t-0.207,0.4485q-2.944,3.933-4.485,3.933q-0.207,0-0.391-0.069q-1.012-0.391-1.012-1.518q0-0.391,0.092-0.782l-1.426,1.38q-1.357,1.196-1.9665,1.196t-1.1615-0.391q-0.621-0.46-0.621-1.219q0-1.679,2.346-4.0135t4.301-2.3345q0.759,0,1.012,0.529q0.069,0.184,0.115,0.3105t0.069,0.1265z M59.68673,30.581q0,0.828,0.575,0.828q1.334,0,3.634-2.921l2.438-3.358q-0.184-0.322-0.598-0.322q-1.403,0-3.726,2.1735t-2.323,3.5995z M73.12264,24.532q0.621,0,0.621,0.483q0,0.138-0.069,0.276q-2.07,2.875-2.484,4.347q5.359-5.359,6.509-5.359q0.115-0.023,0.207-0.023q0.644,0,0.644,0.575q0,0.115-0.046,0.23t-0.92,1.242q-1.012,1.196-1.7135,2.3t-0.7015,1.84t0.322,0.736q1.012,0,3.519-2.783q0.046-0.046,0.161-0.207q0.345-0.414,0.414-0.414t0.069,0.23t-0.322,0.598q-2.852,3.243-4.048,3.243q-1.127,0-1.127-1.242t0.92-2.852l1.472-2.392q-1.564,1.15-2.783,2.5185t-2.2195,2.6565t-1.1615,1.288q-0.345,0-0.5405-0.2875t-0.1955-0.713t0.299-1.1385t0.759-1.725l-1.38,1.449q-0.506,0.506-0.6325,0.506t-0.1265-0.1495t0.184-0.3335q0.851-0.851,1.472-1.633q0.598-0.782,2.461-2.99q0.207-0.276,0.437-0.276z M96.12655,22.692l-0.161-0.621q0-0.184,0.184-0.184q0.069,0,0.184,0.069q0.529,0.391,0.529,1.035t-0.828,1.2535t-2.093,0.6095q-0.391,0-0.782-0.069q-1.587,2.921-3.864,5.382q-3.036,3.22-5.52,3.22q-3.588,0-3.588-4.232q0-3.496,1.863-5.635q1.564-1.84,3.588-1.84q0.529,0,1.081,0.184q1.357,0.529,1.357,2.2425t-1.403,3.5765t-2.875,1.863q-1.656,0-1.656-1.794q0-0.506,0.2185-1.058t0.4945-0.552q0.207,0,0.207,0.207q0,0.115-0.207,0.575t-0.207,0.8165t0.3795,0.667t0.7935,0.3105q1.357,0,2.5185-1.6675t1.1615-3.2545q0-1.219-0.874-1.61q-0.299-0.115-0.621-0.115q-1.633,0-3.266,2.254q-1.587,2.277-1.587,4.991q0,1.495,0.644,2.438q0.667,0.966,1.84,0.966q3.036,0,7.912-8.257q-2.53-0.759-2.53-2.99q0-2.967,3.013-4.738q1.909-1.104,3.703-1.104q1.403,0,2.53,0.46q1.587,0.621,1.587,1.886q0,0.276-0.1265,0.529t-0.2645,0.253q-0.299-0.299-0.713-0.299q-1.955,0-5.359,5.819q0.184,0.023,0.391,0.023q0.782,0,1.564-0.46t0.782-1.15z M93.58505,16.9535q-1.5295,0.6785-2.438,1.9895t-0.9085,2.967t1.702,1.978q1.265-2.07,3.266-4.1285t3.335-2.0585q0.345,0,0.598,0.161q-0.023-0.644-0.897-1.127q-0.782-0.46-1.955-0.46t-2.7025,0.6785z M97.67146,24.532q0.621,0,0.621,0.483q0,0.138-0.069,0.276q-2.07,2.875-2.484,4.347q5.359-5.359,6.509-5.359q0.115-0.023,0.207-0.023q0.644,0,0.644,0.575q0,0.115-0.046,0.23t-0.92,1.242q-1.012,1.196-1.7135,2.3t-0.7015,1.84t0.322,0.736q1.012,0,3.519-2.783q0.046-0.046,0.161-0.207q0.345-0.414,0.414-0.414t0.069,0.23t-0.322,0.598q-2.852,3.243-4.048,3.243q-1.127,0-1.127-1.242t0.92-2.852l1.472-2.392q-1.564,1.15-2.783,2.5185t-2.2195,2.6565t-1.1615,1.288q-0.345,0-0.5405-0.2875t-0.1955-0.713t0.299-1.1385t0.759-1.725l-1.38,1.449q-0.506,0.506-0.6325,0.506t-0.1265-0.1495t0.184-0.3335q0.851-0.851,1.472-1.633q0.598-0.782,2.461-2.99q0.207-0.276,0.437-0.276z M113.63737,20.553q0,0.713-0.414,0.713q-0.115,0-0.23-0.184q-0.207-0.368-0.69-0.368q-1.058,0-1.978,1.518q-0.184,0.299-1.15,2.162l0.276,0q2.507,0,3.335-0.069q0.092,0.023,0.092,0.092q0,0.184-1.633,0.506q-1.541,0.253-2.53,0.437q-0.713,1.472-1.725,3.496q-2.07,3.864-2.737,4.807q-2.001,2.852-3.91,2.852q-0.667,0-1.1615-0.5635t-0.5175-1.2535q0.069-0.276,0.207-0.276q0.069,0,0.092,0.161q0.138,0.598,0.46,0.92t0.667,0.322q1.955,0,3.565-2.415q0.92-1.38,2.507-4.968l1.242-2.99q-2.3-0.023-2.3-0.552q0-0.23,0.2185-0.391t0.3795-0.161l2.162,0.046q2.254-5.014,4.14-5.014q0.713,0,1.449,0.69q0.184,0.184,0.184,0.483z M115.52728,31.915q-1.725,0-1.725-1.909q0-0.966,0.506-2.116t1.104-1.932q-0.115,0.023-0.299,0.023q-0.552,0-0.92-0.782l-1.702,2.208q-1.426,1.771-1.656,1.771q-0.115,0-0.115-0.092q0-0.23,0.391-0.667q2.001-2.323,2.829-3.933q0.529-2.001,1.334-2.001q0.529,0,0.529,0.46t-0.575,1.173l-0.552,0.736q0,0.483,0.713,0.483q0.414,0,0.92-0.299l0.598-0.368q0.046-0.023,0.23-0.023t0.391,0.23t0.138,0.414l-1.587,2.001q-1.472,1.886-1.472,2.9785t1.012,1.0925q1.058,0,2.599-1.127q0.92-0.667,1.679-1.495q0.713-0.828,0.782-0.828q0.161,0,0.161,0.1725t-0.207,0.4025l-0.736,0.828q-0.621,0.644-1.38,1.242q-1.817,1.357-2.99,1.357z M128.54919,24.923l0.322-0.069q0.253,0,0.483,0.207t0.23,0.322t-1.426,2.2195t-1.426,2.9325q0,0.069,0.023,0.138q0.115,0.529,0.506,0.529q1.196,0,4.37-3.956q0.069-0.092,0.161-0.092t0.092,0.1725t-0.207,0.4485q-2.944,3.933-4.485,3.933q-0.207,0-0.391-0.069q-1.012-0.391-1.012-1.518q0-0.391,0.092-0.782l-1.426,1.38q-1.357,1.196-1.9665,1.196t-1.1615-0.391q-0.621-0.46-0.621-1.219q0-1.679,2.346-4.0135t4.301-2.3345q0.759,0,1.012,0.529q0.069,0.184,0.115,0.3105t0.069,0.1265z M121.67219,30.581q0,0.828,0.575,0.828q1.334,0,3.634-2.921l2.438-3.358q-0.184-0.322-0.598-0.322q-1.403,0-3.726,2.1735t-2.323,3.5995z"/></svg>
