<svg width="141" height="35" viewBox="0 0 141 35" fill="none" xmlns="http://www.w3.org/2000/svg">
<rect width="141" height="35" fill="#1B1C1E"/>
<path d="M21.5234 9.60547H24.5801V18.4531C24.5801 19.4427 24.6973 20.1654 24.9316 20.6211C25.2962 21.4284 26.0905 21.832 27.3145 21.832C28.5319 21.832 29.3229 21.4284 29.6875 20.6211C29.9219 20.1654 30.0391 19.4427 30.0391 18.4531V9.60547H33.0957V18.4531C33.0957 19.9831 32.8581 21.1745 32.3828 22.0273C31.4974 23.5898 29.8079 24.3711 27.3145 24.3711C24.821 24.3711 23.1283 23.5898 22.2363 22.0273C21.7611 21.1745 21.5234 19.9831 21.5234 18.4531V9.60547ZM41.5332 13.1016C41.5853 13.1016 41.6276 13.1048 41.6602 13.1113C41.6992 13.1113 41.7806 13.1146 41.9043 13.1211V15.9727C41.7285 15.9531 41.5723 15.9401 41.4355 15.9336C41.2988 15.9271 41.1882 15.9238 41.1035 15.9238C39.9837 15.9238 39.2318 16.2884 38.8477 17.0176C38.6328 17.4277 38.5254 18.0592 38.5254 18.9121V24H35.7227V13.3555H38.3789V15.2109C38.8086 14.5013 39.1829 14.0163 39.502 13.7559C40.0228 13.3197 40.6999 13.1016 41.5332 13.1016ZM49.2969 13.1211C50.6966 13.1211 51.7904 13.6257 52.5781 14.6348C53.3724 15.6439 53.7695 16.946 53.7695 18.541C53.7695 20.1947 53.3789 21.5651 52.5977 22.6523C51.8164 23.7396 50.7259 24.2832 49.3262 24.2832C48.4473 24.2832 47.7409 24.1074 47.207 23.7559C46.888 23.5475 46.543 23.1829 46.1719 22.6621V24H43.4473V9.625H46.2207V14.7422C46.5723 14.2474 46.9596 13.8698 47.3828 13.6094C47.8841 13.2839 48.5221 13.1211 49.2969 13.1211ZM48.584 21.9883C49.3001 21.9883 49.8568 21.6986 50.2539 21.1191C50.651 20.5397 50.8496 19.778 50.8496 18.834C50.8496 18.0788 50.752 17.4538 50.5566 16.959C50.1855 16.0215 49.502 15.5527 48.5059 15.5527C47.4967 15.5527 46.8034 16.0117 46.4258 16.9297C46.2305 17.418 46.1328 18.0495 46.1328 18.8242C46.1328 19.7357 46.3346 20.4909 46.7383 21.0898C47.1419 21.6888 47.7572 21.9883 48.584 21.9883ZM61.6406 18.8242C61.4648 18.9349 61.2858 19.026 61.1035 19.0977C60.9277 19.1628 60.6836 19.2246 60.3711 19.2832L59.7461 19.4004C59.1602 19.5046 58.7402 19.6315 58.4863 19.7812C58.0566 20.0352 57.8418 20.429 57.8418 20.9629C57.8418 21.4382 57.972 21.7832 58.2324 21.998C58.4993 22.2064 58.8216 22.3105 59.1992 22.3105C59.7982 22.3105 60.3483 22.1348 60.8496 21.7832C61.3574 21.4316 61.6211 20.7904 61.6406 19.8594V18.8242ZM59.9512 17.5254C60.4655 17.4603 60.8333 17.3789 61.0547 17.2812C61.4518 17.112 61.6504 16.8483 61.6504 16.4902C61.6504 16.054 61.4974 15.7546 61.1914 15.5918C60.8919 15.4225 60.4492 15.3379 59.8633 15.3379C59.2057 15.3379 58.7402 15.5007 58.4668 15.8262C58.2715 16.0671 58.1413 16.3926 58.0762 16.8027H55.3906C55.4492 15.8717 55.7096 15.1068 56.1719 14.5078C56.9076 13.5703 58.1706 13.1016 59.9609 13.1016C61.1263 13.1016 62.1615 13.3327 63.0664 13.7949C63.9714 14.2572 64.4238 15.1296 64.4238 16.4121V21.2949C64.4238 21.6335 64.4303 22.0436 64.4434 22.5254C64.4629 22.89 64.5182 23.1374 64.6094 23.2676C64.7005 23.3978 64.8372 23.5052 65.0195 23.5898V24H61.9922C61.9076 23.7852 61.849 23.5833 61.8164 23.3945C61.7839 23.2057 61.7578 22.9909 61.7383 22.75C61.3542 23.1667 60.9115 23.5215 60.4102 23.8145C59.8112 24.1595 59.1341 24.332 58.3789 24.332C57.4154 24.332 56.6178 24.0586 55.9863 23.5117C55.3613 22.9583 55.0488 22.1771 55.0488 21.168C55.0488 19.8594 55.5534 18.9121 56.5625 18.3262C57.1159 18.0072 57.9297 17.7793 59.0039 17.6426L59.9512 17.5254ZM72.8027 13.1016C73.903 13.1016 74.8014 13.3913 75.498 13.9707C76.2012 14.5436 76.5527 15.4974 76.5527 16.832V24H73.7012V17.5254C73.7012 16.9655 73.6263 16.5358 73.4766 16.2363C73.2031 15.6895 72.6823 15.416 71.9141 15.416C70.9701 15.416 70.3223 15.8164 69.9707 16.6172C69.7884 17.0404 69.6973 17.5807 69.6973 18.2383V24H66.9238V13.375H69.6094V14.9277C69.9674 14.3809 70.306 13.987 70.625 13.7461C71.1979 13.3164 71.9238 13.1016 72.8027 13.1016Z" fill="#3C50E4"/>
<path d="M82.1094 24H79.1211V9.60547H82.1094V24ZM90.5957 13.1016C91.696 13.1016 92.5944 13.3913 93.291 13.9707C93.9941 14.5436 94.3457 15.4974 94.3457 16.832V24H91.4941V17.5254C91.4941 16.9655 91.4193 16.5358 91.2695 16.2363C90.9961 15.6895 90.4753 15.416 89.707 15.416C88.763 15.416 88.1152 15.8164 87.7637 16.6172C87.5814 17.0404 87.4902 17.5807 87.4902 18.2383V24H84.7168V13.375H87.4023V14.9277C87.7604 14.3809 88.099 13.987 88.418 13.7461C88.9909 13.3164 89.7168 13.1016 90.5957 13.1016ZM100.85 9.45898C101.025 9.45898 101.185 9.46549 101.328 9.47852C101.471 9.48503 101.667 9.49805 101.914 9.51758V11.7832C101.758 11.7637 101.494 11.7507 101.123 11.7441C100.758 11.7311 100.505 11.8125 100.361 11.9883C100.225 12.1576 100.156 12.3464 100.156 12.5547C100.156 12.763 100.156 13.0625 100.156 13.4531H101.982V15.416H100.156V24H97.3828V15.416H95.8301V13.4531H97.3535V12.7695C97.3535 11.6302 97.5456 10.8457 97.9297 10.416C98.3333 9.77799 99.3066 9.45898 100.85 9.45898ZM109.365 13.1016C109.417 13.1016 109.46 13.1048 109.492 13.1113C109.531 13.1113 109.613 13.1146 109.736 13.1211V15.9727C109.561 15.9531 109.404 15.9401 109.268 15.9336C109.131 15.9271 109.02 15.9238 108.936 15.9238C107.816 15.9238 107.064 16.2884 106.68 17.0176C106.465 17.4277 106.357 18.0592 106.357 18.9121V24H103.555V13.3555H106.211V15.2109C106.641 14.5013 107.015 14.0163 107.334 13.7559C107.855 13.3197 108.532 13.1016 109.365 13.1016ZM117.246 18.8242C117.07 18.9349 116.891 19.026 116.709 19.0977C116.533 19.1628 116.289 19.2246 115.977 19.2832L115.352 19.4004C114.766 19.5046 114.346 19.6315 114.092 19.7812C113.662 20.0352 113.447 20.429 113.447 20.9629C113.447 21.4382 113.577 21.7832 113.838 21.998C114.105 22.2064 114.427 22.3105 114.805 22.3105C115.404 22.3105 115.954 22.1348 116.455 21.7832C116.963 21.4316 117.227 20.7904 117.246 19.8594V18.8242ZM115.557 17.5254C116.071 17.4603 116.439 17.3789 116.66 17.2812C117.057 17.112 117.256 16.8483 117.256 16.4902C117.256 16.054 117.103 15.7546 116.797 15.5918C116.497 15.4225 116.055 15.3379 115.469 15.3379C114.811 15.3379 114.346 15.5007 114.072 15.8262C113.877 16.0671 113.747 16.3926 113.682 16.8027H110.996C111.055 15.8717 111.315 15.1068 111.777 14.5078C112.513 13.5703 113.776 13.1016 115.566 13.1016C116.732 13.1016 117.767 13.3327 118.672 13.7949C119.577 14.2572 120.029 15.1296 120.029 16.4121V21.2949C120.029 21.6335 120.036 22.0436 120.049 22.5254C120.068 22.89 120.124 23.1374 120.215 23.2676C120.306 23.3978 120.443 23.5052 120.625 23.5898V24H117.598C117.513 23.7852 117.454 23.5833 117.422 23.3945C117.389 23.2057 117.363 22.9909 117.344 22.75C116.96 23.1667 116.517 23.5215 116.016 23.8145C115.417 24.1595 114.74 24.332 113.984 24.332C113.021 24.332 112.223 24.0586 111.592 23.5117C110.967 22.9583 110.654 22.1771 110.654 21.168C110.654 19.8594 111.159 18.9121 112.168 18.3262C112.721 18.0072 113.535 17.7793 114.609 17.6426L115.557 17.5254Z" fill="white"/>
</svg>
